<svg xmlns="http://www.w3.org/2000/svg" width="960" height="430" viewBox="0 0 960 430" fill="none">
<defs><pattern id="dots" width="14" height="14" patternUnits="userSpaceOnUse"><circle cx="3" cy="3" r="1" fill="#353841" opacity="0.5"/></pattern><marker id="chevGrey" markerUnits="userSpaceOnUse" markerWidth="10" markerHeight="10" refX="8" refY="5" orient="auto"><path d="M2 1.5L8 5 2 8.5" stroke="#555962" stroke-width="1.5" stroke-linecap="round" stroke-linejoin="round"/></marker><marker id="chevAmber" markerUnits="userSpaceOnUse" markerWidth="10" markerHeight="10" refX="8" refY="5" orient="auto"><path d="M2 1.5L8 5 2 8.5" stroke="#eebd53" stroke-width="1.5" stroke-linecap="round" stroke-linejoin="round"/></marker><marker id="chevBody" markerUnits="userSpaceOnUse" markerWidth="10" markerHeight="10" refX="8" refY="5" orient="auto"><path d="M2 1.5L8 5 2 8.5" stroke="#edeef3" stroke-width="1.5" stroke-linecap="round" stroke-linejoin="round"/></marker></defs>
<rect width="960" height="430" fill="#17181c"/><rect width="960" height="430" fill="url(#dots)"/>
<path d="M70 36h18" stroke="#3369ff" stroke-width="2"/>
<text x="95" y="40.5" text-anchor="start" font-family="Inter, system-ui, -apple-system, 'Segoe UI', Roboto, Arial, sans-serif" font-size="12.5" font-weight="500" fill="#888c96">Actual</text>
<path d="M153.8246484375 36h18" stroke="#3fd9d1" stroke-width="2" stroke-dasharray="5 4"/>
<text x="178.8246484375" y="40.5" text-anchor="start" font-family="Inter, system-ui, -apple-system, 'Segoe UI', Roboto, Arial, sans-serif" font-size="12.5" font-weight="500" fill="#888c96">Forecast</text>
<path d="M252.365078125 36h18" stroke="#eebd53" stroke-width="2" stroke-dasharray="5 4"/>
<text x="277.36507812499997" y="40.5" text-anchor="start" font-family="Inter, system-ui, -apple-system, 'Segoe UI', Roboto, Arial, sans-serif" font-size="12.5" font-weight="500" fill="#888c96">Threshold</text>
<rect x="617.6" y="70" width="197.8" height="260" fill="#4e4022" opacity="0.55"/>
<path d="M70 330H912" stroke="#555962" stroke-width="1.5" stroke-linecap="round" marker-end="url(#chevGrey)"/>
<path d="M70 150H900" stroke="#eebd53" stroke-width="2" stroke-dasharray="6 5"/>
<rect x="74.5" y="120.0" width="115" height="24" rx="6" fill="#23262f" stroke="#eebd53"/><text x="132" y="136.32" text-anchor="middle" font-family="Inter, system-ui, -apple-system, 'Segoe UI', Roboto, Arial, sans-serif" font-size="12" font-weight="600" fill="#f9e8c3">Threshold > 600</text>
<path d="M70.0 262.5 71.0 263.6 72.0 265.5 73.0 266.8 74.0 269.4 75.0 272.3 76.0 274.3 77.0 274.9 78.0 277.2 79.0 278.7 80.0 278.1 81.0 278.7 82.0 280.5 83.0 280.4 84.0 281.9 85.0 284.1 86.0 282.9 87.0 281.5 88.0 283.4 89.0 281.1 90.0 282.3 91.0 279.6 92.0 280.7 93.0 277.9 94.0 275.7 95.0 276.6 96.0 273.4 97.0 271.8 98.0 269.8 99.0 269.8 100.0 265.3 101.0 265.2 102.0 261.2 103.0 260.1 104.0 259.2 105.0 256.9 106.0 252.7 107.0 253.1 108.0 249.4 109.0 248.3 110.0 245.8 111.0 243.0 112.0 241.5 113.0 240.0 114.0 239.9 115.0 239.0 116.0 239.2 117.0 237.1 118.0 235.6 119.0 235.9 120.0 236.2 121.0 235.8 122.0 235.5 123.0 235.8 124.0 237.5 125.0 239.0 126.0 238.9 127.0 241.6 128.0 242.5 129.0 242.0 130.0 245.5 131.0 245.8 132.0 247.8 133.0 249.3 134.0 251.1 135.0 253.0 136.0 255.9 137.0 258.7 138.0 258.9 139.0 262.9 140.0 263.6 141.0 266.7 142.0 267.8 143.0 269.6 144.0 270.6 145.0 271.7 146.0 272.0 147.0 274.3 148.0 275.3 149.0 277.2 150.0 275.5 151.0 276.5 152.0 277.9 153.0 276.9 154.0 277.5 155.0 276.9 156.0 276.1 157.0 276.1 158.0 276.4 159.0 275.1 160.0 273.0 161.0 271.1 162.0 271.4 163.0 267.5 164.0 267.7 165.0 263.5 166.0 262.8 167.0 260.4 168.0 259.6 169.0 257.9 170.0 253.3 171.0 251.7 172.0 250.1 173.0 248.3 174.0 245.6 175.0 245.6 176.0 241.8 177.0 241.2 178.0 238.5 179.0 238.8 180.0 234.6 181.0 233.4 182.0 232.4 183.0 231.8 184.0 232.9 185.0 232.9 186.0 230.3 187.0 230.1 188.0 230.6 189.0 232.8 190.0 230.7 191.0 234.2 192.0 234.5 193.0 233.6 194.0 235.3 195.0 237.4 196.0 239.0 197.0 239.8 198.0 242.9 199.0 242.4 200.0 245.6 201.0 247.6 202.0 249.3 203.0 252.8 204.0 253.2 205.0 256.5 206.0 258.0 207.0 260.2 208.0 261.7 209.0 262.2 210.0 265.4 211.0 266.4 212.0 267.6 213.0 267.9 214.0 270.9 215.0 271.1 216.0 271.0 217.0 271.7 218.0 271.8 219.0 271.9 220.0 274.0 221.0 272.4 222.0 271.7 223.0 270.2 224.0 271.7 225.0 271.4 226.0 268.2 227.0 267.6 228.0 266.0 229.0 263.4 230.0 262.8 231.0 262.5 232.0 259.1 233.0 258.7 234.0 254.9 235.0 253.2 236.0 252.3 237.0 249.3 238.0 246.1 239.0 243.9 240.0 242.6 241.0 239.3 242.0 237.4 243.0 236.3 244.0 233.5 245.0 234.0 246.0 232.8 247.0 229.1 248.0 228.4 249.0 227.1 250.0 229.0 251.0 228.0 252.0 227.0 253.0 227.6 254.0 224.9 255.0 226.3 256.0 225.6 257.0 227.4 258.0 226.8 259.0 227.5 260.0 230.5 261.0 229.8 262.0 231.5 263.0 233.4 264.0 236.3 265.0 236.2 266.0 238.8 267.0 242.5 268.0 242.7 269.0 245.6 270.0 246.3 271.0 248.6 272.0 250.3 273.0 254.1 274.0 254.9 275.0 257.2 276.0 258.6 277.0 258.5 278.0 260.6 279.0 263.3 280.0 264.9 281.0 264.6 282.0 267.3 283.0 267.4 284.0 268.8 285.0 267.0 286.0 267.1 287.0 268.4 288.0 266.1 289.0 267.0 290.0 267.1 291.0 266.9 292.0 263.5 293.0 263.3 294.0 262.5 295.0 260.4 296.0 257.7 297.0 257.6 298.0 254.4 299.0 254.0 300.0 251.1 301.0 248.1 302.0 247.7 303.0 243.8 304.0 244.4 305.0 239.9 306.0 238.7 307.0 236.7 308.0 234.6 309.0 234.0 310.0 230.1 311.0 230.6 312.0 227.1 313.0 225.4 314.0 223.9 315.0 225.5 316.0 223.3 317.0 223.2 318.0 220.4 319.0 220.9 320.0 221.1 321.0 220.1 322.0 220.7 323.0 221.3 324.0 222.6 325.0 223.6 326.0 223.9 327.0 225.8 328.0 227.7 329.0 228.8 330.0 230.5 331.0 231.2 332.0 232.9 333.0 233.4 334.0 235.9 335.0 237.8 336.0 239.9 337.0 244.1 338.0 245.4 339.0 245.6 340.0 249.7 341.0 249.9 342.0 252.8 343.0 252.5 344.0 254.7 345.0 256.3 346.0 258.9 347.0 258.9 348.0 259.0 349.0 262.0 350.0 260.5 351.0 262.8 352.0 263.3 353.0 262.7 354.0 261.7 355.0 263.2 356.0 262.6 357.0 260.2 358.0 261.5 359.0 258.7 360.0 256.9 361.0 257.5 362.0 256.3 363.0 254.7 364.0 251.9 365.0 249.0 366.0 249.0 367.0 246.7 368.0 243.3 369.0 241.1 370.0 239.9 371.0 237.6 372.0 234.9 373.0 233.2 374.0 231.2 375.0 228.7 376.0 228.7 377.0 224.5 378.0 223.8 379.0 223.3 380.0 220.2 381.0 220.8 382.0 220.2 383.0 216.4 384.0 218.5 385.0 216.0 386.0 216.1 387.0 216.3 388.0 217.0 389.0 217.9 390.0 216.6 391.0 218.1 392.0 218.3 393.0 219.2 394.0 219.7 395.0 222.7 396.0 223.4 397.0 224.4 398.0 225.5 399.0 229.1 400.0 229.4 401.0 233.3 402.0 234.5 403.0 235.0 404.0 238.1 405.0 241.5 406.0 242.0 407.0 242.8 408.0 245.6 409.0 249.2 410.0 248.9 411.0 249.6 412.0 251.2 413.0 254.9 414.0 254.4 415.0 256.9 416.0 257.2 417.0 255.7 418.0 256.3 419.0 256.3 420.0 257.8 421.0 258.7 422.0 258.2 423.0 257.7 424.0 256.9 425.0 253.9 426.0 254.6 427.0 251.7 428.0 250.0 429.0 248.6 430.0 247.3 431.0 246.6 432.0 242.9 433.0 242.8 434.0 240.0 435.0 237.9 436.0 236.2 437.0 232.6 438.0 232.6 439.0 229.1 440.0 228.5 441.0 225.6 442.0 223.9 443.0 220.3 444.0 220.3 445.0 216.9 446.0 217.0 447.0 215.6 448.0 213.8 449.0 214.6 450.0 213.4 451.0 211.6 452.0 210.8 453.0 210.8 454.0 210.5 455.0 210.2 456.0 210.7 457.0 211.5 458.0 212.1 459.0 212.9 460.0 215.1 461.0 215.0 462.0 218.3 463.0 219.2 464.0 219.4 465.0 221.1 466.0 224.1 467.0 227.5 468.0 228.2 469.0 231.4 470.0 230.7" stroke="#3369ff" stroke-width="2" stroke-linejoin="round" stroke-linecap="round"/>
<path d="M470.0 232.4 471.4 232.9 472.9 233.4 474.3 233.8 475.7 234.2 477.2 234.6 478.6 234.9 480.0 235.2 481.5 235.5 482.9 235.6 484.3 235.8 485.8 235.8 487.2 235.8 488.6 235.8 490.1 235.6 491.5 235.4 492.9 235.1 494.4 234.7 495.8 234.3 497.2 233.8 498.7 233.2 500.1 232.5 501.5 231.8 503.0 231.0 504.4 230.2 505.8 229.3 507.3 228.4 508.7 227.4 510.1 226.5 511.6 225.4 513.0 224.4 514.4 223.4 515.9 222.3 517.3 221.3 518.7 220.2 520.2 219.2 521.6 218.2 523.0 217.2 524.5 216.3 525.9 215.3 527.3 214.5 528.8 213.6 530.2 212.8 531.6 212.1 533.1 211.4 534.5 210.8 535.9 210.2 537.4 209.7 538.8 209.2 540.2 208.7 541.7 208.3 543.1 208.0 544.5 207.7 546.0 207.4 547.4 207.1 548.8 206.9 550.3 206.7 551.7 206.5 553.1 206.3 554.6 206.1 556.0 205.8 557.4 205.6 558.9 205.4 560.3 205.1 561.7 204.8 563.2 204.4 564.6 204.0 566.0 203.5 567.5 203.0 568.9 202.4 570.3 201.7 571.8 201.0 573.2 200.2 574.6 199.3 576.1 198.3 577.5 197.3 578.9 196.1 580.4 194.9 581.8 193.6 583.2 192.3 584.7 190.8 586.1 189.3 587.5 187.7 589.0 186.1 590.4 184.3 591.8 182.6 593.3 180.8 594.7 178.9 596.1 177.1 597.6 175.2 599.0 173.2 600.4 171.3 601.9 169.4 603.3 167.4 604.7 165.5 606.2 163.6 607.6 161.7 609.0 159.8 610.5 158.0 611.9 156.2 613.3 154.5 614.8 152.8 616.2 151.2 617.6 149.6 619.1 148.1 620.5 146.7 621.9 145.3 623.4 144.0 624.8 142.7 626.2 141.5 627.7 140.3 629.1 139.3 630.5 138.2 632.0 137.2 633.4 136.3 634.8 135.4 636.3 134.5 637.7 133.7 639.1 132.9 640.6 132.1 642.0 131.3 643.4 130.6 644.9 129.8 646.3 129.1 647.7 128.3 649.2 127.5 650.6 126.7 652.0 125.8 653.5 124.9 654.9 124.0 656.3 123.1 657.8 122.1 659.2 121.1 660.6 120.0 662.1 118.9 663.5 117.7 664.9 116.5 666.4 115.2 667.8 113.9 669.2 112.5 670.7 111.1 672.1 109.7 673.5 108.3 675.0 106.8 676.4 105.3 677.8 103.8 679.3 102.3 680.7 100.8 682.1 99.3 683.6 97.8 685.0 96.3 686.4 94.9 687.9 93.5 689.3 92.1 690.7 90.8 692.2 89.5 693.6 88.4 695.0 87.2 696.5 86.2 697.9 85.3 699.3 84.4 700.8 83.6 702.2 82.9 703.6 82.4 705.1 81.9 706.5 81.5 707.9 81.2 709.4 81.0 710.8 81.0 712.2 81.0 713.7 81.1 715.1 81.3 716.5 81.6 718.0 82.0 719.4 82.5 720.8 83.0 722.3 83.6 723.7 84.3 725.1 85.0 726.6 85.8 728.0 86.7 729.4 87.5 730.9 88.4 732.3 89.3 733.7 90.3 735.2 91.2 736.6 92.2 738.0 93.1 739.5 94.0 740.9 95.0 742.3 95.9 743.8 96.7 745.2 97.6 746.6 98.4 748.1 99.2 749.5 99.9 750.9 100.7 752.4 101.4 753.8 102.0 755.2 102.6 756.7 103.2 758.1 103.8 759.5 104.3 761.0 104.8 762.4 105.3 763.8 105.8 765.3 106.3 766.7 106.7 768.1 107.2 769.6 107.7 771.0 108.2 772.4 108.7 773.9 109.2 775.3 109.8 776.7 110.4 778.2 111.1 779.6 111.8 781.0 112.6 782.5 113.4 783.9 114.3 785.3 115.3 786.8 116.3 788.2 117.4 789.6 118.6 791.1 119.9 792.5 121.2 793.9 122.6 795.4 124.1 796.8 125.6 798.2 127.3 799.7 129.0 801.1 130.7 802.5 132.5 804.0 134.4 805.4 136.3 806.8 138.2 808.3 140.2 809.7 142.3 811.1 144.3 812.6 146.3 814.0 148.4 815.4 150.4 816.9 152.5 818.3 154.5 819.7 156.5 821.2 158.5 822.6 160.4 824.0 162.3 825.5 164.2 826.9 166.0 828.3 167.7 829.8 169.3 831.2 170.9 832.6 172.5 834.1 173.9 835.5 175.3 836.9 176.6 838.4 177.8 839.8 178.9 841.2 180.0 842.7 181.0 844.1 181.9 845.5 182.8 847.0 183.6 848.4 184.3 849.8 185.0 851.3 185.7 852.7 186.3 854.1 186.9 855.6 187.4 857.0 187.9 858.4 188.4 859.9 188.9 861.3 189.4 862.7 189.9 864.2 190.4 865.6 191.0 867.0 191.5 868.5 192.1 869.9 192.7 871.3 193.3 872.8 194.0 874.2 194.8 875.6 195.5 877.1 196.4 878.5 197.2 879.9 198.2 881.4 199.1 882.8 200.1 884.2 201.2 885.7 202.3 887.1 203.5 888.5 204.7 890.0 205.9 891.4 207.1 892.8 208.4 894.3 209.7 895.7 211.0 897.1 212.3 898.6 213.6 900.0 214.9" stroke="#3fd9d1" stroke-width="2" stroke-dasharray="5 4" stroke-linejoin="round" stroke-linecap="round"/>
<path d="M470 64V330" stroke="#888c96" stroke-dasharray="4 3"/>
<rect x="447.5" y="42.0" width="45" height="24" rx="6" fill="#23262f" stroke="#888c96"/><text x="470" y="58.32" text-anchor="middle" font-family="Inter, system-ui, -apple-system, 'Segoe UI', Roboto, Arial, sans-serif" font-size="12" font-weight="600" fill="#edeef3">Now</text>
<path d="M617.6 150V330" stroke="#eebd53" stroke-dasharray="3 3"/>
<circle cx="617.6" cy="150" r="5" fill="#eebd53" stroke="#17181c" stroke-width="1.5"/>
<path d="M815.4 150V330" stroke="#eebd53" stroke-dasharray="3 3"/>
<circle cx="815.4" cy="150" r="5" fill="#eebd53" stroke="#17181c" stroke-width="1.5"/>
<text x="716.5333333333333" y="314" text-anchor="middle" font-family="Inter, system-ui, -apple-system, 'Segoe UI', Roboto, Arial, sans-serif" font-size="12.5" font-weight="600" fill="#f9e8c3">Predicted event</text>
<text x="617.6333333333333" y="350" text-anchor="middle" font-family="Inter, system-ui, -apple-system, 'Segoe UI', Roboto, Arial, sans-serif" font-size="12" font-weight="600" fill="#f9e8c3">Event starts</text>
<text x="815.4333333333334" y="350" text-anchor="middle" font-family="Inter, system-ui, -apple-system, 'Segoe UI', Roboto, Arial, sans-serif" font-size="12" font-weight="600" fill="#f9e8c3">Event ends</text>
<path d="M474 108H611.6" stroke="#edeef3" stroke-width="1.5" marker-end="url(#chevBody)"/>
<rect x="493.8" y="96.0" width="100" height="24" rx="6" fill="#23262f" stroke="#edeef3"/><text x="543.8166666666666" y="112.32" text-anchor="middle" font-family="Inter, system-ui, -apple-system, 'Segoe UI', Roboto, Arial, sans-serif" font-size="12" font-weight="600" fill="#edeef3">Time to event</text>
<path d="M470 372v6H900v-6" stroke="#3fd9d1" stroke-width="1.5"/>
<text x="685.0" y="400" text-anchor="middle" font-family="Inter, system-ui, -apple-system, 'Segoe UI', Roboto, Arial, sans-serif" font-size="12.5" font-weight="500" fill="#3fd9d1">Prediction horizon: events are searched only here</text>
<path d="M70 372v6H462v-6" stroke="#3369ff" stroke-width="1.5"/>
<text x="270.0" y="400" text-anchor="middle" font-family="Inter, system-ui, -apple-system, 'Segoe UI', Roboto, Arial, sans-serif" font-size="12.5" font-weight="500" fill="#b3c7ff">Measured history</text>
</svg>
